<?xml version="1.0" encoding="utf-8"?>
<!-- Generator: Adobe Illustrator 21.0.2, SVG Export Plug-In . SVG Version: 6.00 Build 0)  -->
<svg version="1.1" id="Layer_1" xmlns="http://www.w3.org/2000/svg" xmlns:xlink="http://www.w3.org/1999/xlink" x="0px" y="0px"
	 viewBox="0 0 299.2 80.6" style="enable-background:new 0 0 299.2 80.6;" xml:space="preserve">
<style type="text/css">
	.st0{fill:#C52026;}
	.st1{fill:#555555;}
	.st2{fill:#CCCCCB;}
</style>
<g>
	<path class="st0" d="M32.7,23.6c0,3.4-0.8,6.5-2.5,9.1c-1.7,2.6-3.9,4.7-6.6,6.3c-2.3,1.4-5,2.4-7.8,3.2c-2.9,0.7-6.1,1.1-9.7,1.1
		c-1.4,0-2.7,0-4-0.1s-2-0.1-2.2-0.1c0-0.1,0-2.4,0.1-6.8c0-4.4,0.1-8.6,0.1-12.6c0-2.1,0-4.8,0-8.1S0,8.3,0,3.6c0.2,0,1.1,0,2.7,0
		s2.5,0,2.6,0c4,0,7.6,0.4,10.8,1.1c3.1,0.7,5.9,1.9,8.4,3.4c2.9,1.8,5,4,6.4,6.6C32,17.3,32.7,20.2,32.7,23.6z M27.7,23.6
		c0-2.5-0.5-4.9-1.6-6.9c-1.1-2.1-2.8-3.9-5.2-5.3C18.7,10,16.2,9,13.6,8.5C10.9,8,8.5,7.7,6.3,7.7c-0.3,0-0.6,0-0.9,0s-0.5,0-0.6,0
		c0,3.1-0.1,5.7-0.1,7.7s0,3.7,0,4.9c0,0.9,0,2.9,0,6c0,3.2,0,7.5,0,13.1c0.3,0,0.5,0,0.7,0s0.5,0,0.7,0c2.5,0,5.1-0.3,7.7-0.9
		s4.7-1.4,6.5-2.5c2.2-1.3,4-3,5.4-5.1C27,28.8,27.7,26.4,27.7,23.6z"/>
	<path class="st0" d="M74.5,34.4c0,1.4-0.4,2.7-1.1,3.9c-0.7,1.1-1.6,2.1-2.8,2.8c-1.2,0.7-2.6,1.3-4.3,1.7
		c-1.6,0.4-3.4,0.6-5.4,0.6c-1,0-2,0-3-0.1s-1.6-0.1-1.8-0.2l-0.2-3.8c0.2,0,0.9,0.1,2,0.2c1.2,0.1,2.4,0.1,3.5,0.1
		c0.7,0,1.6-0.1,2.6-0.2c1.1-0.1,2-0.3,2.7-0.6c1-0.4,1.7-1,2.2-1.6s0.7-1.4,0.7-2.3c0-0.8-0.2-1.5-0.6-2c-0.4-0.5-1-1-1.7-1.5
		c-0.8-0.5-1.9-1.1-3.2-1.7c-1.4-0.6-2.5-1.2-3.4-1.7c-1.3-0.8-2.3-1.8-3-2.8c-0.7-1.1-1-2.4-1-3.8s0.4-2.8,1.2-3.9
		c0.8-1.2,1.9-2.1,3.2-2.8c1.2-0.6,2.4-1,3.8-1.2c1.4-0.2,2.8-0.3,4.1-0.3c1.2,0,2.2,0,2.9,0.1c0.7,0.1,1.2,0.1,1.3,0.1l0.3,3.9
		c-0.1,0-0.7,0-1.8-0.1s-2.2-0.1-3.5-0.1c-0.9,0-1.8,0.1-2.6,0.2c-0.8,0.2-1.5,0.4-2.1,0.7c-0.8,0.4-1.4,0.9-1.8,1.6
		c-0.4,0.6-0.5,1.2-0.5,1.8c0,0.8,0.3,1.5,0.8,2c0.5,0.6,1.1,1,1.8,1.4c0.8,0.5,1.9,1,3.3,1.7c1.4,0.6,2.4,1.2,3,1.6
		c1.4,0.9,2.4,1.8,3.1,2.9C74.2,31.7,74.5,33,74.5,34.4z"/>
	<path class="st0" d="M107.2,43h-4.6c0-0.6,0-2.4,0.1-5.3c0-2.9,0-4.9,0-5.8c0-1,0-2.5,0-4.5s0-3.4,0-4.4c-0.1-2.3-0.5-3.9-1.3-4.8
		c-0.8-1-2.2-1.5-4.2-1.5c-1.1,0-2.5,0.3-4.3,1c-1.7,0.7-3.6,1.6-5.5,2.7L87.5,43h-4.6c0-0.8,0-3.8,0.1-9.2c0-5.4,0-9.8,0-13.3
		c0-2.3,0-5.1,0-8.6S83,4.5,82.9,0h4.6l-0.1,16.7l0,0c2.8-1.6,5.1-2.7,6.9-3.3c1.8-0.6,3.3-0.9,4.6-0.9c2.5,0,4.5,0.8,6,2.4
		s2.3,3.7,2.3,6.5c0,2.5,0,4.6,0,6.4s0,3.2,0,4.4c0,1.8,0,3.8,0.1,6.1C107.1,40.6,107.2,42.2,107.2,43z"/>
	<path class="st0" d="M158.3,7.9c-0.3,0-1.6,0-3.8,0s-5,0-8.2,0c-1.5,0-2.8,0-4,0s-2.3,0-3.1,0c0,2.2,0,4.6-0.1,7.2
		c0,2.6-0.1,4.9-0.1,6.8c0.2,0,0.9,0,2,0s2.2,0,3.2,0c3.2,0,6.2,0,9.1,0c2.8,0,4.4,0,4.7,0V26c-0.4,0-2.2,0-5.4,0s-6.1,0-8.7,0
		c-0.8,0-1.8,0-2.9,0s-1.8,0-2.1,0c0,3.5,0,6.7,0,9.8s0.1,5.6,0.1,7.4h-4.8c0-1.2,0.1-3.3,0.1-6.3s0-7.3,0-13c0-2.2,0-5.1,0-8.8
		c0-3.6-0.1-7.4-0.1-11.2c1.4,0,3.2,0,5.2,0c2.1,0,4.2,0,6.5,0c3.4,0,6.3,0,8.5,0s3.5,0,3.8,0L158.3,7.9L158.3,7.9z"/>
	<path class="st0" d="M172.3,7.6h-5.2V2.5h5.2V7.6z M172,43h-4.6c0-0.3,0-2.2,0.1-5.8c0-3.5,0-6.5,0-8.8c0-2,0-4.2,0-6.7
		c0-2.4,0-5.3-0.1-8.5h4.6c0,2.8-0.1,5.5-0.1,7.9c0,2.5,0,4.6,0,6.6c0,4.6,0,8.2,0.1,11C172,41.5,172,43,172,43z"/>
	<path class="st0" d="M207.4,43h-4.6c0-0.5,0-2.4,0.1-5.4c0-3.1,0-5,0-5.7c0-1,0-2.5,0-4.5s0-3.4,0-4.4c-0.1-2.3-0.5-3.9-1.3-4.8
		c-0.8-1-2.2-1.5-4.2-1.5c-1.2,0-2.7,0.4-4.4,1.1c-1.8,0.7-3.5,1.6-5.3,2.7c0,0.2,0,1.4,0,3.5s0,4,0,5.8c0,2.3,0,5,0.1,8.2
		c0,3.2,0.1,4.9,0.1,5.1h-4.6c0-0.1,0-1.3,0.1-3.6c0-2.3,0.1-5.6,0.1-10.1c0-2.1,0-4.5,0-7.2c0-2.8,0-5.7-0.1-8.8h4.6v3.4v0.1
		c2.7-1.6,5-2.7,6.9-3.3c1.8-0.6,3.4-0.9,4.6-0.9c2.5,0,4.5,0.8,6,2.4s2.3,3.7,2.3,6.5c0,2.5,0,4.6,0,6.4s0,3.2,0,4.4
		c0,1.8,0,4,0.1,6.7C207.4,41.5,207.4,42.9,207.4,43z"/>
	<path class="st0" d="M240.6,43.5c-0.1,0-0.5,0-1.1,0s-1.1,0-1.5,0c-3.7,0-6.6-0.2-8.7-0.5c-2.1-0.3-4.1-1-6.1-1.9
		c-2.6-1.3-4.6-2.9-5.9-5c-1.4-2.1-2-4.4-2-6.9c0-3,0.8-5.6,2.3-7.9s3.7-4.1,6.5-5.4c1.7-0.8,3.6-1.4,5.7-1.8
		c2.2-0.4,4.3-0.6,6.3-0.6L236,0h4.6c0,0.4,0,3.1-0.1,8.2c0,5.1-0.1,10.2-0.1,15.5c0,4.1,0,7.9,0,11.2
		C240.6,38.2,240.6,41.1,240.6,43.5z M236.1,22.8c0-0.8,0-1.6,0-2.6c0-0.9,0-1.9,0-2.8c-2,0-3.8,0.2-5.5,0.5s-3.2,0.8-4.5,1.3
		c-2,0.9-3.5,2.2-4.6,3.9s-1.6,3.6-1.6,5.9c0,2,0.5,3.7,1.6,5.2c1,1.4,2.3,2.6,3.9,3.4c1.4,0.7,2.9,1.3,4.6,1.6
		c1.7,0.4,3.5,0.5,5.3,0.5c0.1,0,0.3,0,0.4,0s0.2,0,0.4,0c0-0.2,0-1.6,0-4.4C236,32.6,236.1,28.5,236.1,22.8z"/>
	<path class="st0" d="M274.3,27.1h-21.2c0,2.1,0.5,4,1.3,5.7c0.9,1.7,2.2,3.2,4,4.3c1.1,0.7,2.4,1.3,3.9,1.6
		c1.4,0.4,3.2,0.5,5.2,0.5c1.1,0,2.1,0,3.1-0.1c0.9-0.1,1.5-0.1,1.7-0.1l-0.5,3.9c-0.2,0-0.7,0.1-1.6,0.1s-1.9,0.1-3.1,0.1
		c-3.1,0-5.9-0.4-8.2-1.2c-2.3-0.8-4.2-1.9-5.7-3.4c-1.3-1.2-2.4-2.7-3.2-4.6c-0.9-1.9-1.3-3.9-1.3-6.2c0-2.2,0.3-4.2,1-6
		s1.7-3.5,3-5c1.2-1.3,2.6-2.4,4.3-3.1c1.7-0.7,3.5-1.1,5.3-1.1s3.4,0.3,4.8,0.8s2.6,1.4,3.7,2.5c1.2,1.3,2,2.8,2.6,4.6
		C273.9,22.3,274.2,24.5,274.3,27.1z M269.7,23.8c-0.3-2.4-1.1-4.3-2.5-5.7c-1.3-1.4-3.1-2.1-5.3-2.1c-2.2,0-4,0.7-5.5,2.1
		c-1.5,1.4-2.5,3.3-3.1,5.7H269.7z"/>
	<path class="st0" d="M299.2,16.8c-1.1,0.3-2.7,0.8-4.9,1.6c-2.2,0.8-4.8,1.9-7.7,3.3c0,0.2,0,1.2,0,3s0,3.4,0,4.9
		c0,2.3,0,5.1,0.1,8.2c0,3.2,0.1,4.9,0.1,5.3h-4.6c0-0.3,0-1.4,0.1-3.3c0-1.9,0.1-5,0.1-9.5c0-1.8,0-4.4,0-7.6c0-3.3,0-6.4-0.1-9.3
		h4.6v4.5l0,0c2.2-1.3,4.4-2.3,6.5-3.3c2.2-0.9,3.9-1.5,5.2-1.9L299.2,16.8z"/>
	<path class="st0" d="M51.6,0.7h-2.1l-0.6,13.7h-2.8l-0.2-14H44l-0.3,14h-2.4l-1-13.7h-2v14.2l0,0c0.1,4.5,2.1,5,4.8,6.3H43v21.6
		h4.1V25.7l0,0v-4.5c0,0,4.4-1.7,4.5-6.3l0,0V0.7z"/>
</g>
<g>
	<g>
		<path class="st1" d="M119.5,68.7c0,0.3,0,0.7-0.1,1c1.1-0.8,2.3-2.2,3.1-3.8c0.2-0.4,0.5-0.4,0.6,0c0.1,0.5,0,1.1-0.3,1.8
			c-0.3,0.7-1.8,2.5-3.6,3.1c-0.5,3-1.8,6.4-3.2,8.2c-1,1.3-1.8,1.4-2.7,0.6c-0.8-0.6-1.6-1.8-1.3-4.3c0.8-6.7,7.7-18.2,11.1-23.2
			c0.2-0.4,0.6-0.3,0.8,0c0.4,1,0.3,2.3-1,4.5c-1.2,2-3.3,5.4-4.9,8.6C119.1,65.6,119.5,66.8,119.5,68.7z M113.7,78.5
			c0.7,0.9,2.9-3.3,3.9-7.4c-0.9-0.1-1.5-0.5-1.8-1.2C114.1,73.9,113,77.6,113.7,78.5z M118.1,68.1c0-1.1-0.3-2-0.5-1.9
			c-0.3,0.1-0.6,1.7-0.6,2.4c0,1,0.2,1.6,0.8,1.7C117.9,69.5,118,68.8,118.1,68.1z"/>
		<path class="st1" d="M122.2,66.8c0.8-2.2,2.7-5.7,3.8-7.3c0.3-0.4,0.5-0.5,0.7-0.2c0.5,0.5,0.7,1.8,0,3.3
			c-0.6,1.3-1.9,3.4-2.5,4.9c-0.7,1.7-0.7,2.9,0.3,2.8c1.3-0.1,3-2,3.9-4.1c0.2-0.3,0.4-0.2,0.5,0c0.2,0.5,0.2,1.1-0.2,1.9
			c-0.9,1.9-2.8,3.1-4.5,3.1C121.9,71.2,121.3,69.3,122.2,66.8z M128.9,59c-0.4,0.4-1.2,0.3-1.7-0.5s-0.3-1.7,0.1-2.2
			s1.4-0.1,1.7,0.7C129.5,57.8,129.2,58.6,128.9,59z"/>
		<path class="st1" d="M137.3,59c1,0.2,1.9,1.6,1.2,3.2c-0.6,1.3-2.1,3.5-2.8,5.1c-0.8,1.7-0.6,3.1,0.5,3.1c1.2-0.1,2.7-2,3.8-4.1
			c0.1-0.3,0.4-0.3,0.5,0c0.2,0.3,0.1,1-0.3,1.9c-0.8,1.7-2.7,3.2-4.4,3.2c-2.5,0-3.1-1.9-2.3-4.5c1-2.9,3.6-6.1,3.1-6.4
			c-0.3-0.1-2,0.7-4,2.8c-1.8,1.9-3.1,4.8-4.4,7.6c-0.1,0.3-0.3,0.4-0.6,0.1c-0.6-0.6-0.8-1.6-0.3-3.1c0.6-1.9,2.9-6.1,4.8-8.8
			c0.2-0.3,0.5-0.3,0.6,0c0.4,0.8,0.4,1.8,0.1,2.9C134.3,60.5,136.3,58.9,137.3,59z"/>
		<path class="st1" d="M148.1,70.4c1.2-0.1,2.8-2.1,3.9-4.1c0.1-0.3,0.4-0.3,0.5,0s0.1,1-0.2,1.9c-0.8,1.6-2.7,3.2-4.3,3.1
			s-2.4-1-2.4-2.4c-1,1.2-2.3,2.3-3.7,2.3c-2.8,0-3.3-3.8-0.9-7.4c2.4-3.5,4.8-4.8,6.3-4.8c1.2,0,1.8,0.9,1.8,2
			c1.6-3.1,3.9-7.2,5-8.7c0.3-0.4,0.6-0.4,0.7,0c0.4,1,0.3,2.3-0.9,4.5c-1.4,2.6-4.3,7.5-5.8,10.7C147.1,69.3,147.1,70.5,148.1,70.4
			z M142.9,65c-1.6,2.6-2,5.2-0.8,5.2s2.8-1.7,4.2-4.5c1.7-3.3,2.2-5.2,1.3-5.2C146.8,60.5,144.6,62.3,142.9,65z"/>
		<path class="st1" d="M162.6,71.1c-1.6,0-2.6-0.8-3.1-2.1c-0.3,0.6-0.6,1.3-0.9,2c-0.1,0.3-0.3,0.3-0.5,0.1
			c-0.5-0.6-0.8-1.5-0.1-3.3c0.8-2.5,6.7-13.6,8.8-16.5c0.3-0.4,0.5-0.4,0.8,0c0.5,0.8,0.5,2.2-0.8,4.4c-0.5,0.8-1.7,2.9-2.7,4.6
			c0.9-0.8,1.8-1.3,2.6-1.3c2.5,0,2.7,3.5,1,7.2C166.2,69.4,164.4,71.1,162.6,71.1z M164,61.5c-1.4,1.4-2.8,3.9-3.9,6.2
			c0.1,0.9,0.5,1.8,1.3,2c1,0.2,2.4-0.7,4.2-4.1c1.7-3.4,1.4-5.2,0.7-5.3C165.5,60.2,164.9,60.5,164,61.5z"/>
		<path class="st1" d="M172.9,70.4c2.5,0.1,4.7-2.3,6-4.3c0.1-0.2,0.4-0.2,0.5,0s0,1.1-0.5,1.9c-1.3,1.8-3.6,3.2-5.9,3.2
			c-3.8,0.1-5.1-3.7-3.2-7.6s5-5.4,6.5-4.6c0.8,0.5,1.3,0.9,1.8,1.6s0.3,2.6-1,4.1c-1.5,1.8-3.5,2.6-5.6,0.9
			C170.6,68.4,171.4,70.3,172.9,70.4z M175.4,63.5c1-1.3,1.6-2.8,1.2-3.1c-0.6-0.5-3.1,1.3-4.5,4.1c-0.1,0.2-0.2,0.4-0.2,0.5
			C173.3,65.9,174.6,64.6,175.4,63.5z"/>
		<path class="st1" d="M182.9,60.7c0.2-1.2,0.5-1.7,1.1-2.3c0.7-0.6,1.4-0.7,1.6-0.5c0.3,0.3,0.1,0.6-0.2,1.3
			c-0.1,0.2-0.2,0.4-0.3,0.6c-0.2,2.8,0.4,5.1,0.3,7.2c-0.1,1.2-0.3,2.4-1.3,3.2c2-0.8,3.3-2.5,4-4.2c0.2-0.3,0.5-0.2,0.6,0
			c0.1,0.3,0.1,1-0.4,2c-1.1,2.1-3.2,3.2-5.3,3.3c-1.7,0.1-3.4-0.4-4.4-2.2c-0.7-1.4-0.6-3.3,0.4-4.2c0.4-0.3,0.6-0.2,0.6,0.3
			c0,0.2,0,0.5,0.1,0.7C180.7,64.2,182,62.2,182.9,60.7z M179.7,67.5c0.5,1.7,1.3,3,2.3,2.7c1.4-0.4,0.9-5.1,0.8-7.5
			C182,64.2,180.9,65.9,179.7,67.5z"/>
		<path class="st1" d="M189.1,58.3c-0.3-0.4-0.1-0.6,0.3-0.6c0.8,0,1.7,0,2.5-0.1c0.9-1.6,1.8-3.1,2.3-3.7c0.3-0.4,0.6-0.4,0.7,0
			c0.3,0.8,0.3,1.8-0.4,3.4c1.2,0,1.6,0.5,1.9,0.9c0.2,0.4,0.1,0.6-0.4,0.6c-0.7-0.1-1.6,0-2.3,0.1c-1.2,2-2.9,4.9-4,7.4
			c-1,2.2-0.7,4,0.6,4.1c1.4,0.1,3.1-2.1,4.2-4.3c0.2-0.4,0.5-0.4,0.6,0c0.2,0.5,0,1-0.3,1.7c-0.4,0.9-2.4,3.5-4.8,3.4
			c-2-0.1-3.6-2.3-2.1-5.7c0.6-1.5,1.9-4,3.2-6.4C190.1,59.1,189.4,58.7,189.1,58.3z"/>
		<path class="st1" d="M208.4,59.9c0.4-0.2,0.6-0.3,0.8-0.1c0.6,0.6,1.3,2,0.4,2.9c-1.4,1.5-2.8,3.4-3.3,5s-0.1,2.7,0.8,2.8
			c1.2,0.1,2.6-1.8,3.6-4c0.1-0.2,0.3-0.3,0.4,0s0.2,1-0.1,1.9c-0.7,1.7-2.4,3-4,2.9c-2.2-0.1-3-2.1-2.3-4.3c0.7-2,2.4-4.1,3.6-5.5
			c-1.3,0.9-2.6,1.1-3.5,1.1c-1.1,2.1-4,6.4-4.6,9.1c-0.1,0.3-0.2,0.4-0.5,0.1c-0.9-0.9-0.9-2.3-0.1-3.8c0.7-1.3,2.7-4.1,3.8-5.7
			c-1.7-1.1,0.9-4.7,2-4.7c0.9,0,0.7,1.7-0.1,3.6C206.3,61.2,207.3,60.7,208.4,59.9z"/>
		<path class="st1" d="M214.4,70.4c2.5,0.1,4.7-2.3,6-4.3c0.2-0.2,0.4-0.2,0.5,0s0,1.1-0.5,1.9c-1.3,1.8-3.6,3.2-5.9,3.2
			c-3.8,0.1-5.1-3.7-3.2-7.6s5-5.4,6.5-4.6c0.8,0.5,1.3,0.9,1.8,1.6s0.3,2.6-1,4.1c-1.5,1.8-3.5,2.6-5.6,0.9
			C212.1,68.4,212.8,70.3,214.4,70.4z M216.9,63.5c1-1.3,1.6-2.8,1.2-3.1c-0.6-0.5-3.1,1.3-4.5,4.1c-0.1,0.2-0.2,0.4-0.2,0.5
			C214.8,65.9,216,64.6,216.9,63.5z"/>
		<path class="st1" d="M224.3,60.7c0.1-1.2,0.4-1.7,1.1-2.3c0.7-0.6,1.3-0.7,1.6-0.5c0.3,0.3,0.2,0.6-0.2,1.3
			c-0.1,0.2-0.2,0.4-0.3,0.6c-0.2,2.8,0.4,5.1,0.3,7.2c-0.1,1.2-0.3,2.4-1.3,3.2c2-0.8,3.3-2.5,4-4.2c0.2-0.3,0.5-0.2,0.6,0
			c0.1,0.3,0.1,1-0.4,2c-1.1,2.1-3.2,3.2-5.3,3.3c-1.7,0.1-3.4-0.4-4.4-2.2c-0.7-1.4-0.6-3.3,0.4-4.2c0.4-0.3,0.6-0.2,0.6,0.3
			c0,0.2,0,0.5,0.1,0.7C222.1,64.2,223.5,62.2,224.3,60.7z M221.2,67.5c0.5,1.7,1.3,3,2.3,2.7c1.4-0.4,0.9-5.1,0.8-7.5
			C223.4,64.2,222.3,65.9,221.2,67.5z"/>
		<path class="st1" d="M230.6,58.3c-0.3-0.4-0.1-0.6,0.3-0.6c0.8,0,1.7,0,2.5-0.1c0.9-1.6,1.8-3.1,2.3-3.7c0.3-0.4,0.6-0.4,0.7,0
			c0.3,0.8,0.3,1.8-0.4,3.4c1.2,0,1.6,0.5,1.9,0.9c0.2,0.4,0.1,0.6-0.4,0.6c-0.7-0.1-1.6,0-2.3,0.1c-1.2,2-2.9,4.9-4,7.4
			c-1,2.2-0.7,4,0.6,4.1s3.1-2.1,4.2-4.3c0.2-0.4,0.5-0.4,0.6,0c0.2,0.5,0,1-0.3,1.7c-0.4,0.9-2.4,3.5-4.8,3.4
			c-2-0.1-3.6-2.3-2.1-5.7c0.6-1.5,1.9-4,3.2-6.4C231.5,59.1,230.8,58.7,230.6,58.3z"/>
		<path class="st1" d="M252.9,71.2c-2.3-0.1-3.2-2.1-2.5-4.5c0.6-2,2.5-4.3,3.7-5.7c-1.3,0.8-2.6,1.1-3.6,1.1c-1.6,4-4.1,8.8-7.3,9
			c-1.8,0.2-2.7-1.1-2.5-2.8c-1,1.4-2.5,2.9-4.2,2.8c-2.2-0.2-2.2-2.4-1.5-4.3c0.7-2,2.1-4.9,4.1-7.6c0.2-0.3,0.5-0.3,0.7,0
			c0.7,1,0.6,2.2-0.5,4c-1,1.8-1.8,3-2.4,4.4c-0.6,1.5-0.5,2.5,0.2,2.6c1.2,0.1,2.8-2,4.4-4.6c1.9-3.1,2.7-5.1,3.7-6.4
			c0.3-0.4,0.5-0.4,0.7-0.2c0.5,0.5,0.7,1.8,0,3.3c-0.6,1.3-2.2,3.6-2.8,5.1c-0.8,1.7-0.6,2.9,0.3,2.8c1.9-0.2,4.4-4,6-8.3
			c-2.4-0.9,0.4-4.9,1.7-5c1-0.1,0.7,1.8,0.1,3.8c1-0.1,2.1-0.6,3.3-1.4c0.4-0.3,0.7-0.4,0.9-0.1c0.5,0.7,1.3,2,0.4,3.1
			c-1.4,1.6-2.8,3.7-3.4,5.2c-0.6,1.6-0.2,2.8,0.8,2.9c1.2,0.1,2.7-1.9,3.7-4.1c0.1-0.3,0.3-0.3,0.5,0s0.2,1.1-0.2,2
			C256.3,70,254.5,71.3,252.9,71.2z"/>
		<path class="st1" d="M267.2,59.2c0.3-0.4,0.5-0.5,0.7-0.2c0.5,0.5,0.7,1.8,0,3.3c-0.7,1.3-2.2,3.6-2.9,5.2c-0.8,1.7-0.8,3,0.2,2.9
			c1.2-0.1,2.9-2.1,3.9-4.2c0.2-0.3,0.4-0.3,0.5,0s0.1,1-0.3,1.9c-0.8,1.7-2.7,3.3-4.3,3.2c-1.6-0.1-2.5-1-2.5-2.5
			c-1,1.2-2.3,2.3-3.8,2.3c-2.8,0-3.4-3.8-0.9-7.4c2.4-3.5,4.8-4.9,6.3-4.9c1.3,0,1.9,1,1.8,2.2C266.5,60.3,266.8,59.7,267.2,59.2z
			 M264.8,60.4c-1-0.1-3.1,1.9-4.8,4.5c-1.6,2.6-2,5.2-0.8,5.2s2.8-1.9,4.3-4.5C265.4,62.4,265.6,60.5,264.8,60.4z"/>
		<path class="st1" d="M277.8,59c1,0.2,1.9,1.6,1.2,3.2c-0.6,1.3-2.1,3.5-2.8,5.1c-0.8,1.7-0.6,3.1,0.5,3.1c1.2-0.1,2.7-2,3.8-4.1
			c0.1-0.3,0.4-0.3,0.5,0c0.2,0.3,0.1,1-0.3,1.9c-0.8,1.7-2.7,3.2-4.4,3.2c-2.5,0-3.1-1.9-2.3-4.5c1-2.9,3.6-6.1,3.1-6.4
			c-0.3-0.1-2,0.7-4,2.8c-1.8,1.9-3.1,4.8-4.4,7.6c-0.1,0.3-0.3,0.4-0.6,0.1c-0.6-0.6-0.8-1.6-0.3-3.1c0.6-1.9,2.9-6.1,4.8-8.8
			c0.2-0.3,0.5-0.3,0.6,0c0.5,0.8,0.4,1.8,0.1,2.9C274.7,60.5,276.8,58.9,277.8,59z"/>
		<path class="st1" d="M281.8,58.3c-0.3-0.4-0.1-0.6,0.3-0.6c0.8,0,1.7,0,2.5-0.1c0.9-1.6,1.8-3.1,2.3-3.7c0.3-0.4,0.6-0.4,0.7,0
			c0.3,0.8,0.3,1.8-0.4,3.4c1.2,0,1.6,0.5,1.9,0.9c0.2,0.4,0.1,0.6-0.4,0.6c-0.7-0.1-1.6,0-2.3,0.1c-1.2,2-2.9,4.9-4,7.4
			c-1,2.2-0.7,4,0.6,4.1c1.3,0.1,3.1-2.1,4.2-4.3c0.2-0.4,0.5-0.4,0.6,0c0.2,0.5,0,1-0.3,1.7c-0.4,0.9-2.4,3.5-4.8,3.4
			c-2-0.1-3.6-2.3-2.1-5.7c0.6-1.5,1.9-4,3.2-6.4C282.7,59.1,282,58.7,281.8,58.3z"/>
		<path class="st1" d="M291,60.7c0.1-1.2,0.4-1.7,1.1-2.3c0.7-0.6,1.3-0.7,1.6-0.5c0.3,0.3,0.2,0.6-0.2,1.3
			c-0.1,0.2-0.2,0.4-0.3,0.6c-0.2,2.8,0.4,5.1,0.3,7.2c-0.1,1.2-0.3,2.4-1.3,3.2c2-0.8,3.3-2.5,4-4.2c0.2-0.3,0.5-0.2,0.6,0
			c0.1,0.3,0.1,1-0.4,2c-1.1,2.1-3.2,3.2-5.3,3.3c-1.7,0.1-3.4-0.4-4.4-2.2c-0.7-1.4-0.6-3.3,0.4-4.2c0.4-0.3,0.6-0.2,0.6,0.3
			c0,0.2,0,0.5,0.1,0.7C288.8,64.2,290.2,62.2,291,60.7z M287.8,67.5c0.4,1.7,1.3,3,2.3,2.7c1.4-0.4,0.9-5.1,0.8-7.5
			C290.1,64.2,289,65.9,287.8,67.5z"/>
	</g>
</g>
<g>
	<path class="st2" d="M3.8,69.2c2.5,0.1,4.7-2.3,6-4.3c0.1-0.2,0.4-0.2,0.5,0s0,1.1-0.5,1.9C8.5,68.6,6.2,70,3.9,70
		c-3.8,0.1-5.1-3.7-3.2-7.6s5-5.4,6.5-4.6C8,58.3,8.5,58.7,9,59.4s0.3,2.6-1,4.1c-1.5,1.8-3.5,2.6-5.6,0.9
		C1.5,67.3,2.2,69.2,3.8,69.2z M6.3,62.3c1-1.3,1.6-2.8,1.2-3.1c-0.6-0.5-3.1,1.3-4.5,4.1c-0.1,0.2-0.2,0.4-0.2,0.5
		C4.2,64.8,5.4,63.5,6.3,62.3z"/>
	<path class="st2" d="M20.1,58.1c0.3-0.4,0.5-0.5,0.7-0.2c0.5,0.5,0.7,1.8,0,3.3c-0.7,1.3-2.2,3.6-2.9,5.2c-0.8,1.7-0.8,3,0.2,2.9
		c1.2-0.1,2.9-2.1,3.9-4.2c0.2-0.3,0.4-0.3,0.5,0s0.1,1-0.3,1.9c-0.8,1.7-2.7,3.3-4.3,3.2c-1.6-0.1-2.5-1-2.5-2.5
		c-1,1.2-2.3,2.3-3.8,2.3c-2.8,0-3.4-3.8-0.9-7.4c2.4-3.5,4.8-4.9,6.3-4.9c1.3,0,1.9,1,1.8,2.2C19.4,59.2,19.8,58.5,20.1,58.1z
		 M17.7,59.3c-1-0.1-3.1,1.9-4.8,4.5c-1.6,2.6-2,5.2-0.8,5.2s2.8-1.9,4.3-4.5C18.3,61.2,18.6,59.4,17.7,59.3z"/>
	<path class="st2" d="M26.1,59.6c0.2-1.2,0.5-1.7,1.1-2.3c0.7-0.6,1.4-0.7,1.6-0.5c0.3,0.3,0.1,0.6-0.2,1.3
		c-0.1,0.2-0.2,0.4-0.3,0.6c-0.2,2.8,0.4,5.1,0.3,7.2c-0.1,1.2-0.3,2.4-1.3,3.2c2-0.8,3.3-2.5,4-4.2c0.1-0.3,0.5-0.2,0.6,0
		c0.1,0.3,0.1,1-0.4,2c-1.1,2.1-3.2,3.2-5.3,3.3c-1.7,0.1-3.4-0.4-4.4-2.2c-0.7-1.4-0.6-3.3,0.4-4.2c0.4-0.3,0.6-0.2,0.6,0.3
		c0,0.2,0,0.5,0.1,0.7C23.9,63,25.3,61.1,26.1,59.6z M22.9,66.3c0.5,1.7,1.3,3,2.3,2.7c1.4-0.4,0.9-5.1,0.8-7.5
		C25.2,63.1,24.1,64.7,22.9,66.3z"/>
	<path class="st2" d="M36.4,70.7c-1.7,4-3.8,8.8-6.3,9.8c-0.6,0.2-1.1,0.2-1.7-0.6c-0.6-0.9-1.2-2-0.6-3.7c0.9-2.7,3.5-4.5,6.4-5.7
		c0.3-0.7,0.6-1.4,0.9-2.2c-0.9,1-2.1,1.7-3.3,1.6c-2.2-0.2-2.2-2.4-1.5-4.3s2.1-4.9,4.1-7.6c0.2-0.3,0.5-0.3,0.8,0
		c0.7,1,0.5,2.2-0.6,4c-1.1,1.7-1.7,3-2.3,4.4c-0.6,1.5-0.5,2.5,0.1,2.6c1.2,0.1,2.7-1.8,4.2-4.4c1.3-2.2,2.6-4.9,3.6-6.4
		c0.3-0.4,0.5-0.5,0.8-0.2c0.4,0.5,0.7,1.8-0.1,3.4c-0.9,1.7-2.7,5.3-4,8.2c2.3-1.3,4.1-3,5.3-4.6c0.1-0.2,0.4-0.2,0.5,0.1
		c0.1,0.3,0,1-0.5,1.7C41,68.6,38.9,69.7,36.4,70.7z M29,78.9c0.4,0.6,2.8-2.7,4.7-7.1C29.8,74,28.4,78.2,29,78.9z"/>
	<path class="st2" d="M63.7,57.7c0.4-0.1,0.6,0.4,0.5,1c-0.2,1.2-0.8,2.5-2.6,5.7c-2,3.4-4.2,5.7-6.2,5.7c-1.3,0-2-1.2-1.9-2.5
		c-1,1.2-2.2,2.4-3.7,2.3c-1.9-0.1-2.2-2.1-1.4-4.3c0.7-2,2.2-4.9,4.2-7.6c0.2-0.3,0.5-0.3,0.7,0c0.7,1,0.6,2.3-0.5,4
		s-1.9,3.1-2.5,4.6s-0.6,2.5,0.1,2.5c1.2,0,2.3-2,3.9-4.6c1.9-3.1,2.8-5.1,3.8-6.4c0.3-0.4,0.5-0.5,0.8-0.2c0.4,0.5,0.7,1.9-0.1,3.4
		c-0.7,1.3-2.2,3.6-2.9,5.2c-0.8,1.7-0.7,2.7,0.1,2.8c1,0,2.9-2,4.5-4.8C61,59.8,63.1,57.8,63.7,57.7z"/>
	<path class="st2" d="M73.4,58.1c0.3-0.4,0.5-0.5,0.7-0.2c0.5,0.5,0.7,1.8,0,3.3c-0.7,1.3-2.2,3.6-2.9,5.2c-0.8,1.7-0.8,3,0.2,2.9
		c1.2-0.1,2.9-2.1,3.9-4.2c0.2-0.3,0.4-0.3,0.5,0c0.1,0.3,0.1,1-0.3,1.9c-0.8,1.7-2.7,3.3-4.3,3.2c-1.6-0.1-2.5-1-2.5-2.5
		c-1,1.2-2.3,2.3-3.8,2.3c-2.8,0-3.4-3.8-0.9-7.4c2.4-3.5,4.8-4.9,6.3-4.9c1.3,0,1.9,1,1.8,2.2C72.7,59.2,73,58.5,73.4,58.1z
		 M71,59.3c-1-0.1-3.1,1.9-4.8,4.5c-1.6,2.6-2,5.2-0.8,5.2s2.8-1.9,4.3-4.5C71.6,61.2,71.8,59.4,71,59.3z"/>
	<path class="st2" d="M80.6,70.7c-1.7,4-3.8,8.8-6.3,9.8c-0.6,0.2-1.1,0.2-1.7-0.6c-0.6-0.9-1.2-2-0.6-3.7c0.9-2.7,3.5-4.5,6.4-5.7
		c0.3-0.7,0.6-1.4,0.9-2.2c-0.9,1-2.1,1.7-3.3,1.6c-2.2-0.2-2.2-2.4-1.5-4.3s2.1-4.9,4.1-7.6c0.2-0.3,0.5-0.3,0.8,0
		c0.7,1,0.5,2.2-0.6,4c-1.1,1.7-1.7,3-2.3,4.4c-0.6,1.5-0.5,2.5,0.2,2.6c1.2,0.1,2.7-1.8,4.2-4.4c1.3-2.2,2.6-4.9,3.6-6.4
		c0.3-0.4,0.5-0.5,0.8-0.2c0.4,0.5,0.7,1.8-0.1,3.4c-0.9,1.7-2.7,5.3-4,8.2c2.3-1.3,4.1-3,5.3-4.6c0.1-0.2,0.4-0.2,0.5,0.1
		c0.1,0.3,0,1-0.5,1.7C85.2,68.6,83.1,69.7,80.6,70.7z M73.2,78.9c0.4,0.6,2.8-2.7,4.7-7.1C74,74,72.7,78.2,73.2,78.9z"/>
	<path class="st2" d="M94.4,57.2c-0.3-0.4-0.1-0.6,0.3-0.6c0.8,0,1.7,0,2.5-0.1c0.9-1.6,1.8-3.1,2.3-3.7c0.3-0.4,0.6-0.4,0.7,0
		c0.3,0.8,0.3,1.8-0.4,3.4c1.2,0,1.6,0.5,1.9,0.9c0.2,0.4,0.1,0.6-0.4,0.6c-0.7-0.1-1.6,0-2.3,0.1c-1.2,2-2.9,4.9-4,7.4
		c-1,2.2-0.7,4,0.6,4.1c1.3,0.1,3.1-2.1,4.2-4.3c0.2-0.4,0.5-0.4,0.6,0c0.2,0.5,0,1-0.3,1.7c-0.4,0.9-2.4,3.5-4.8,3.4
		c-2-0.1-3.6-2.3-2.1-5.7c0.6-1.5,1.9-4,3.2-6.4C95.4,58,94.7,57.5,94.4,57.2z"/>
	<path class="st2" d="M108.5,63.6c-0.6,2.5-2.5,5.6-4.7,6.3c-1.1,0.4-2.6,0.2-3.8-1.3c-1.3-1.7-0.9-4.3,0.5-6.8c1.1-2,3-3.8,4.8-3.9
		c0.9-0.1,1.4,0.2,2,1c0.7,0.9,1.6,1.1,1.4,3.3c0,0.2,0,0.5-0.1,0.7c0.2,0,0.4-0.1,0.6-0.1c0.2,0,0.2,0.2,0.1,0.3
		C109.1,63.4,108.8,63.5,108.5,63.6z M106,62.8c-0.6-0.5-1.3-1.5-1.4-2.6c-0.8,0.7-1.7,1.7-2.3,2.8c-1.3,2.3-1.7,5-0.9,5.7
		c0.8,0.7,2.7-0.4,4.1-3.1c0.5-0.8,0.8-1.7,1-2.4C106.3,63.1,106.1,63,106,62.8z M107,60.2c-0.2-1-0.8-0.8-0.9,0.1
		c-0.1,0.8,0.2,1.7,0.7,2.1C107,61.4,107.1,60.7,107,60.2z"/>
</g>
</svg>
