<?xml version="1.0" encoding="utf-8"?>
<!-- Generator: Adobe Illustrator 21.0.2, SVG Export Plug-In . SVG Version: 6.00 Build 0)  -->
<svg version="1.1" id="Layer_1" xmlns="http://www.w3.org/2000/svg" xmlns:xlink="http://www.w3.org/1999/xlink" x="0px" y="0px"
	 viewBox="0 0 126.5 97.4" style="enable-background:new 0 0 126.5 97.4;" xml:space="preserve">
<style type="text/css">
	.st0{opacity:0.32;}
	.st1{fill:#FFFFFF;}
</style>
<g class="st0">
	<path class="st1" d="M29.1,58.9c3.1,1.6,4.9,4.9,4.6,8.4l-3,30.1H41l-3-30.1c-0.3-3.5,1.5-6.8,4.6-8.4c3.8-2,6.4-6.1,6.4-13.8
		c0-11.7-7.2-27-13.2-27c-5.7,0-13.2,15.3-13.2,27C22.7,52.8,25.2,57,29.1,58.9z"/>
	<path class="st1" d="M61,58.9c3.1,1.6,4.9,4.9,4.6,8.4l-3,30.1h10.3l-3-30.1c-0.3-3.5,1.5-6.8,4.6-8.4c3.8-2,6.4-6.1,6.4-13.8V19.9
		c0-1-0.8-1.8-1.8-1.8s-1.9,0.8-1.9,1.9v23.3c0,1.1-0.9,1.9-1.9,1.9c-1.1,0-1.9-0.9-1.9-1.9V20c0-1-0.8-1.9-1.9-1.9l0,0
		c-1,0-1.9,0.8-1.9,1.9v23.3c0,1.1-0.9,1.9-1.9,1.9c-1.1,0-1.9-0.9-1.9-1.9V20c0-1-0.8-1.9-1.9-1.9l0,0c-1,0-1.9,0.8-1.9,1.9v23.3
		c0,1.1-0.9,1.9-1.9,1.9c-1.1,0-1.9-0.9-1.9-1.9V20c0-1-0.8-1.9-1.9-1.9c-1,0-1.8,0.8-1.8,1.8v25.2C54.6,52.8,57.1,57,61,58.9z"/>
	<path class="st1" d="M93.4,75.6l-2.1,21.9h10.3l-2.5-25.3l-0.1-53c0-1-0.9-1.9-1.9-1.9c-0.8,0-1.6,0.5-1.8,1.3l-8.4,26.6
		c-2.6,8.3-0.9,17.4,4.7,24.2C92.9,71.1,93.6,73.3,93.4,75.6z"/>
</g>
</svg>
