<?xml version="1.0" encoding="utf-8"?>
<!-- Generator: Adobe Illustrator 21.0.2, SVG Export Plug-In . SVG Version: 6.00 Build 0)  -->
<svg version="1.1" id="Capa_1" xmlns="http://www.w3.org/2000/svg" xmlns:xlink="http://www.w3.org/1999/xlink" x="0px" y="0px"
	 viewBox="0 0 93.6 93.6" style="enable-background:new 0 0 93.6 93.6;" xml:space="preserve">
<style type="text/css">
	.st0{fill:#FCFAFA;}
</style>
<g>
	<g>
		<path class="st0" d="M80.5,52c-0.1,0-0.1,0-0.2,0v5.5v6.4v18.9H10.9V13.3h30.7c0-0.1,0-0.1,0-0.2V2.8c0-0.1,0-0.3,0-0.4H2
			c-1.1,0-2,0.9-2,2v87.1c0,1.1,0.9,2.1,2,2.1h87.1c1.1,0,2-0.9,2-2.1V52.9V52c-0.1,0-0.2,0-0.3,0L80.5,52L80.5,52z"/>
		<path class="st0" d="M64.8,17L25.7,56c-0.4,0.4-0.6,0.9-0.6,1.4c0,0.5,0.2,1,0.6,1.4l9,9c0.4,0.4,0.9,0.6,1.4,0.6s1-0.2,1.4-0.6
			l39.1-39.1l9.6,9.6c0.5,0.5,1.3,0.7,2.1,0.5c0.7-0.3,1.2-0.9,1.3-1.7l3.9-35C93.7,1.6,93.5,1,93,0.6c-0.4-0.4-1-0.6-1.6-0.6
			L56.4,4C55.6,4,55,4.6,54.7,5.3c-0.3,0.7-0.1,1.5,0.5,2.1L64.8,17z"/>
	</g>
</g>
</svg>
