<svg id="Layer_1" data-name="Layer 1" xmlns="http://www.w3.org/2000/svg" viewBox="0 0 53.63 69.6"><defs><style>.cls-1{fill:#d3d3d3;}.cls-2{fill:#fff;}.cls-3{fill:#686868;}</style></defs><title>user</title><path id="_Path_" data-name="&lt;Path&gt;" class="cls-1" d="M12,75.23s9.21,4.13,18.94,4h1.46c9.73.1,18.94-4,18.94-4,4.41.67,7.14-3.17,7.14-3.17l-1.2-9.21c-.77-8.35-8.44-9.78-10-10.26s-7.1-2-7.87-3.74A7,7,0,0,1,39.26,46a27.94,27.94,0,0,0,4.39-8.07c1.13.79,1.58-.19,1.58-.19,3.55-5.18,1.34-7.29.87-7.67s-1,.29-1,.29l0,.14c.68-13.8-11.11-14.75-12.5-14.82,0,0-.12,0-.91,0a8.85,8.85,0,0,1-.91,0c-1.36.06-13.19,1-12.51,14.82l0-.14s-.48-.67-1-.29-2.69,2.49.87,7.67c0,0,.46,1,1.58.19A27.94,27.94,0,0,0,24.1,46a7,7,0,0,1-.19,2.86c-.77,1.73-6.33,3.26-7.87,3.74s-9.21,1.92-10,10.26l-1.2,9.21S7.59,75.9,12,75.23Z" transform="translate(-4.86 -9.66)"/><path id="_Path_2" data-name="&lt;Path&gt;" class="cls-2" d="M12,72.23s9.21,4.13,18.94,4h1.46c9.73.1,18.94-4,18.94-4,4.41.67,7.14-3.17,7.14-3.17l-1.2-9.21c-.77-8.35-8.44-9.78-10-10.26s-7.1-2-7.87-3.74A7,7,0,0,1,39.26,43a27.94,27.94,0,0,0,4.39-8.07c1.13.79,1.58-.19,1.58-.19,3.55-5.18,1.34-7.29.87-7.67s-1,.29-1,.29l0,.14c.68-13.8-11.11-14.75-12.5-14.82,0,0-.12,0-.91,0a8.85,8.85,0,0,1-.91,0c-1.36.06-13.19,1-12.51,14.82l0-.14s-.48-.67-1-.29-2.69,2.49.87,7.67c0,0,.46,1,1.58.19A27.94,27.94,0,0,0,24.1,43a7,7,0,0,1-.19,2.86c-.77,1.73-6.33,3.26-7.87,3.74s-9.21,1.92-10,10.26l-1.2,9.21S7.59,72.9,12,72.23Z" transform="translate(-4.86 -9.66)"/><path id="_Path_3" data-name="&lt;Path&gt;" class="cls-3" d="M12,69.23s9.21,4.13,18.94,4h1.46c9.73.1,18.94-4,18.94-4,4.41.67,7.14-3.17,7.14-3.17l-1.2-9.21c-.77-8.35-8.44-9.78-10-10.26s-7.1-2-7.87-3.74A7,7,0,0,1,39.26,40a27.94,27.94,0,0,0,4.39-8.07c1.13.79,1.58-.19,1.58-.19,3.55-5.18,1.34-7.29.87-7.67s-1,.29-1,.29l0,.14C45.77,10.68,34,9.73,32.59,9.66c0,0-.12,0-.91,0a8.85,8.85,0,0,1-.91,0c-1.36.06-13.19,1-12.51,14.82l0-.14s-.48-.67-1-.29-2.69,2.49.87,7.67c0,0,.46,1,1.58.19A27.94,27.94,0,0,0,24.1,40a7,7,0,0,1-.19,2.86c-.77,1.73-6.33,3.26-7.87,3.74s-9.21,1.92-10,10.26l-1.2,9.21S7.59,69.9,12,69.23Z" transform="translate(-4.86 -9.66)"/></svg>